<?xml version="1.0" standalone="no"?>
<!DOCTYPE svg PUBLIC "-//W3C//DTD SVG 20010904//EN"
 "http://www.w3.org/TR/2001/REC-SVG-20010904/DTD/svg10.dtd">
<svg version="1.0" xmlns="http://www.w3.org/2000/svg"
 width="757.000000pt" height="597.000000pt" viewBox="0 0 757.000000 597.000000"
 preserveAspectRatio="xMidYMid meet">

<g transform="translate(0.000000,597.000000) scale(0.100000,-0.100000)"
fill="#000000" stroke="none">
<path d="M4001 5264 c0 -11 3 -14 6 -6 3 7 2 16 -1 19 -3 4 -6 -2 -5 -13z"/>
<path d="M4020 5228 c0 -16 4 -28 9 -28 10 0 22 -75 21 -140 0 -59 -29 -190
-41 -190 -6 0 -15 -13 -20 -30 -6 -16 -14 -30 -18 -30 -4 0 -16 -16 -27 -35
-10 -19 -23 -35 -28 -35 -5 0 -21 -13 -35 -28 -36 -40 -165 -132 -185 -132 -9
0 -16 -4 -16 -10 0 -5 -6 -10 -13 -10 -8 0 -22 -9 -32 -20 -10 -11 -24 -20
-31 -20 -7 0 -33 -16 -58 -35 -26 -19 -49 -35 -52 -35 -15 0 -160 -128 -200
-178 -25 -31 -52 -61 -60 -65 -8 -4 -14 -13 -14 -19 0 -6 -15 -32 -34 -58 -18
-26 -37 -58 -41 -71 -4 -13 -12 -31 -19 -39 -21 -28 -36 -60 -36 -75 0 -8 -4
-23 -9 -33 -13 -23 -44 -121 -47 -152 -15 -122 -19 -135 -40 -138 -17 -2 -24
5 -33 29 -6 18 -11 44 -11 59 0 14 -7 35 -15 46 -19 25 -19 152 0 259 20 112
32 390 16 399 -6 4 -11 35 -11 76 0 38 -4 72 -10 75 -5 3 -10 14 -10 23 0 9
-7 30 -15 46 -8 15 -15 34 -15 42 0 17 -65 127 -85 144 -8 7 -15 20 -16 29 0
10 -2 11 -6 4 -2 -7 3 -33 13 -58 13 -36 16 -66 12 -148 -6 -106 -5 -105 -76
-234 -23 -41 -173 -181 -206 -192 -6 -2 -20 -12 -31 -22 -11 -10 -36 -25 -56
-33 -20 -8 -41 -22 -49 -30 -7 -9 -20 -16 -30 -16 -9 0 -28 -10 -41 -23 -13
-12 -50 -41 -83 -62 -96 -65 -207 -181 -277 -290 -82 -127 -99 -159 -99 -182
0 -10 -4 -23 -9 -28 -10 -11 -46 -133 -55 -187 -4 -20 -12 -38 -18 -40 -6 -2
-32 3 -58 11 l-48 14 -6 71 c-3 39 -9 89 -12 111 -8 58 -64 203 -95 250 -14
22 -36 56 -47 75 -20 32 -22 33 -22 11 0 -14 7 -32 15 -41 9 -10 17 -48 21
-103 6 -74 4 -96 -16 -157 -26 -81 -89 -173 -165 -241 -27 -24 -56 -52 -63
-61 -7 -10 -19 -18 -26 -18 -7 0 -24 -8 -37 -18 -13 -10 -44 -30 -69 -43 -25
-13 -63 -37 -85 -52 -22 -15 -58 -39 -80 -53 -92 -59 -105 -70 -105 -81 0 -7
-4 -13 -9 -13 -12 0 -106 -89 -117 -112 -5 -9 -26 -34 -46 -57 -21 -22 -38
-44 -38 -50 0 -5 -4 -11 -8 -13 -11 -4 -82 -153 -82 -171 0 -8 -6 -20 -14 -26
-8 -7 -22 -42 -31 -79 -9 -37 -21 -78 -25 -92 -13 -38 -23 -143 -25 -261 -2
-59 -5 -112 -9 -118 -17 -27 -108 49 -143 121 -10 21 -21 38 -25 38 -5 0 -8 8
-8 18 0 9 -9 28 -20 42 -11 14 -20 35 -20 46 0 12 -7 41 -15 64 -8 23 -15 57
-16 74 0 26 -2 28 -9 11 -8 -22 -30 -217 -27 -250 1 -11 -2 -46 -7 -79 -6 -38
-5 -60 2 -65 5 -3 13 -44 16 -91 3 -47 8 -103 9 -125 2 -22 4 -53 5 -68 1 -16
6 -26 11 -23 5 3 12 -20 16 -51 4 -32 13 -66 21 -77 8 -11 14 -28 14 -38 0
-15 36 -92 60 -128 15 -22 98 -140 122 -175 22 -30 180 -175 192 -175 3 0 24
-11 46 -25 22 -14 46 -25 54 -25 7 0 19 -7 26 -16 17 -19 54 -40 49 -26 -5 12
-96 82 -107 82 -4 0 -19 12 -34 28 -14 15 -33 33 -43 41 -9 7 -15 22 -12 32 5
20 -15 32 -39 22 -14 -5 -14 -3 -3 14 11 18 8 27 -19 70 -18 27 -32 55 -32 62
0 6 -4 19 -9 29 -13 24 -31 118 -43 225 -9 79 -11 138 -8 280 0 41 17 33 40
-20 11 -27 26 -57 32 -68 6 -10 21 -39 34 -63 24 -45 60 -81 82 -82 9 0 12 24
13 88 0 48 2 94 4 102 3 8 13 59 24 113 16 77 29 112 61 163 22 35 40 67 40
72 0 4 14 21 31 38 17 16 39 44 51 62 11 17 28 32 38 32 10 0 22 9 25 20 3 11
9 20 13 20 4 0 38 25 75 55 38 30 74 55 82 55 7 0 15 7 19 15 3 8 17 20 31 25
15 6 25 17 25 30 0 11 4 20 8 20 5 0 14 11 21 24 l13 23 51 -19 c35 -13 70
-18 114 -16 43 2 66 -1 72 -10 4 -7 7 -61 6 -120 -3 -170 35 -322 84 -335 10
-2 21 -15 23 -27 1 -13 12 -28 23 -34 11 -6 22 -14 25 -18 3 -4 18 -11 33 -17
27 -11 27 -11 11 -37 -10 -15 -17 -42 -16 -66 1 -23 -2 -46 -6 -52 -5 -6 -14
-36 -21 -66 -6 -30 -16 -71 -21 -90 -4 -19 -13 -57 -18 -85 -22 -105 -17 -101
-133 -109 -101 -6 -103 -7 -157 -49 -30 -23 -80 -61 -111 -85 -31 -24 -59 -49
-64 -57 -4 -8 -3 -41 4 -72 11 -53 10 -61 -10 -94 -19 -33 -27 -37 -94 -49
-39 -7 -78 -18 -85 -23 -23 -18 -72 -98 -72 -117 0 -10 -4 -22 -10 -25 -14 -9
-12 -118 2 -136 14 -17 114 -89 124 -89 3 0 17 -9 31 -19 60 -48 170 -32 214
31 11 15 24 28 29 28 18 0 112 -83 123 -108 21 -49 130 -227 146 -239 34 -26
175 -70 301 -93 233 -44 333 -51 348 -25 4 9 34 20 68 27 60 11 61 11 140 -30
82 -43 195 -83 299 -106 147 -34 243 -40 605 -40 354 -1 399 2 565 34 266 52
394 60 570 35 327 -46 519 -24 725 83 63 32 92 42 115 39 16 -3 80 -15 140
-27 61 -12 147 -24 193 -27 75 -5 87 -3 112 16 16 11 37 21 46 21 9 0 33 4 53
9 152 40 146 36 196 151 41 94 58 115 105 129 23 7 80 30 127 52 48 22 91 38
97 36 7 -3 19 -29 29 -59 14 -45 23 -57 52 -71 40 -19 69 -21 111 -8 16 5 55
17 87 26 102 30 99 22 99 243 0 186 0 194 23 219 22 27 22 27 2 43 -11 9 -27
34 -36 56 -9 21 -39 80 -66 131 -50 91 -50 92 -100 104 -68 16 -197 59 -211
70 -6 5 -17 36 -23 68 l-12 58 -42 8 c-23 3 -57 9 -75 12 -41 7 -48 21 -54
110 -9 123 -20 136 -191 220 -139 68 -173 93 -127 93 10 0 24 9 30 20 6 10 25
26 43 35 18 8 44 33 58 55 13 22 30 40 37 40 8 0 12 23 12 82 0 75 3 88 40
164 22 46 40 91 40 101 0 11 5 24 11 30 11 11 25 98 38 234 6 65 14 95 31 119
29 41 68 56 89 36 13 -14 12 -18 -8 -35 -13 -11 -24 -33 -25 -48 -2 -15 -9
-41 -16 -56 -11 -23 -12 -37 -2 -73 7 -24 12 -51 12 -59 0 -19 71 -114 86
-114 6 -1 22 -17 35 -36 13 -19 35 -39 49 -43 14 -5 45 -26 68 -46 24 -20 48
-36 53 -36 5 0 14 -11 20 -24 6 -13 26 -30 45 -39 18 -9 45 -36 60 -59 15 -24
35 -49 46 -56 10 -7 18 -18 18 -25 0 -6 16 -37 35 -69 51 -82 73 -180 78 -345
2 -76 6 -138 10 -138 15 0 97 89 97 104 0 34 32 112 50 121 11 6 20 24 22 43
2 17 7 32 12 32 18 0 26 -60 27 -185 1 -118 -12 -210 -41 -284 -5 -13 -11 -42
-13 -63 -3 -21 -14 -54 -26 -73 -11 -19 -21 -43 -21 -53 0 -10 -7 -20 -15 -23
-9 -4 -13 -13 -10 -23 4 -12 -8 -27 -40 -50 -25 -18 -45 -39 -45 -47 0 -8 -4
-14 -10 -14 -5 0 -10 -9 -10 -20 0 -39 19 -28 140 81 38 34 70 69 70 76 0 8 4
12 9 8 12 -7 53 44 45 56 -3 5 2 12 11 15 29 11 155 225 155 263 0 9 4 21 9
26 13 14 58 250 71 371 8 79 8 133 -5 260 -8 87 -15 162 -15 167 0 4 -4 7 -10
7 -5 0 -10 -16 -10 -35 0 -22 -6 -38 -15 -41 -9 -4 -15 -19 -15 -39 0 -19 -4
-36 -9 -39 -5 -3 -12 -18 -16 -33 -3 -16 -12 -35 -20 -43 -7 -8 -16 -26 -20
-38 -9 -31 -132 -159 -142 -148 -4 4 -11 74 -14 154 -4 81 -12 167 -17 192 -6
25 -14 59 -17 75 -12 55 -46 155 -56 160 -5 4 -9 17 -9 31 0 15 -6 24 -15 24
-10 0 -15 10 -15 29 0 16 -7 34 -15 41 -8 7 -15 18 -15 25 0 6 -18 32 -41 57
-22 25 -48 61 -57 79 -10 21 -24 33 -35 33 -9 -1 -17 4 -17 10 0 18 -132 146
-150 146 -8 0 -21 9 -28 20 -7 11 -17 20 -24 20 -6 0 -21 9 -32 19 -12 10 -45
31 -74 46 -30 16 -56 34 -59 42 -3 7 -14 13 -24 13 -10 0 -19 4 -19 9 0 5 -8
12 -19 16 -10 3 -28 13 -39 23 -11 9 -44 37 -74 62 -68 56 -163 168 -165 195
0 11 -9 40 -18 65 -22 57 -16 197 10 236 9 14 15 35 13 46 -2 17 -10 10 -38
-33 -45 -69 -80 -139 -80 -162 0 -10 -4 -15 -10 -12 -5 3 -10 -3 -10 -14 0
-11 -4 -23 -10 -26 -5 -3 -10 -26 -10 -50 0 -24 -4 -47 -10 -50 -5 -3 -10 -30
-10 -60 0 -88 -27 -86 -59 4 -10 28 -23 57 -30 64 -6 6 -11 19 -11 28 0 18
-24 68 -37 78 -4 3 -21 26 -38 51 -16 25 -41 57 -55 71 -14 14 -38 42 -54 62
-16 20 -36 39 -45 42 -9 3 -29 28 -45 57 -16 29 -30 54 -31 55 -1 2 -25 7 -54
13 -29 5 -64 19 -78 30 -14 11 -31 20 -38 20 -6 0 -20 9 -30 20 -10 11 -23 20
-30 20 -6 0 -26 11 -45 25 -20 15 -41 23 -52 19 -13 -4 -16 -1 -12 9 3 9 -15
30 -48 58 -128 104 -198 203 -218 309 -11 60 -13 163 -3 174 8 7 33 76 33 90
0 5 -11 -4 -25 -20 -39 -45 -42 -49 -50 -75 -4 -13 -13 -31 -20 -39 -17 -20
-61 -161 -74 -234 -14 -77 -14 -333 -1 -341 6 -3 10 -35 10 -71 0 -50 3 -64
15 -64 8 0 15 -7 15 -16 0 -10 -6 -14 -14 -11 -7 3 -19 0 -25 -6 -8 -8 -17 -5
-33 10 -31 27 -117 83 -128 83 -9 0 -24 6 -110 44 -60 26 -113 82 -141 148 -6
15 -26 37 -45 49 -41 25 -49 51 -39 138 17 158 26 251 31 326 11 160 -37 398
-97 479 -16 22 -29 45 -29 50 -1 6 -12 25 -25 41 l-25 30 0 -27z m70 -164 c0
-8 -4 -12 -10 -9 -5 3 -10 10 -10 16 0 5 5 9 10 9 6 0 10 -7 10 -16z m-23
-136 c-3 -7 -5 -2 -5 12 0 14 2 19 5 13 2 -7 2 -19 0 -25z m705 -360 c-9 -9
-12 -7 -12 12 0 19 3 21 12 12 9 -9 9 -15 0 -24z m-924 -294 c18 -15 42 -46
52 -69 10 -24 24 -45 30 -47 6 -2 25 -44 42 -93 28 -82 31 -106 38 -275 4
-102 11 -203 15 -225 10 -49 99 -147 157 -170 21 -8 38 -18 38 -22 0 -15 111
-138 130 -145 13 -5 20 -17 20 -35 0 -15 5 -35 10 -43 8 -13 11 -13 27 2 11
12 18 39 21 83 2 36 6 65 9 65 7 0 42 -44 43 -53 0 -9 21 -60 46 -112 15 -32
8 -108 -15 -168 -24 -62 -4 -122 31 -94 9 6 18 21 20 31 1 11 9 21 17 24 11 4
12 0 6 -14 -5 -11 -9 -36 -8 -56 0 -21 -4 -39 -12 -41 -6 -3 -45 1 -86 9 -298
58 -620 77 -846 50 -179 -22 -344 -52 -463 -84 -102 -27 -160 -38 -160 -28 0
3 10 14 21 25 19 18 20 22 7 35 -9 9 -13 25 -11 40 4 18 0 25 -14 28 -10 2 9
10 42 17 33 8 88 27 123 43 77 36 96 33 159 -25 52 -48 59 -49 225 -29 54 7
122 12 153 12 64 0 95 13 95 38 0 10 -33 50 -74 88 -73 70 -110 118 -153 197
-20 38 -22 54 -21 192 1 154 -13 255 -39 276 -7 6 -13 23 -13 37 0 14 3 22 7
19 13 -14 100 48 181 129 45 45 82 85 82 89 0 5 12 33 26 63 21 44 25 65 21
102 -5 45 -31 104 -53 125 -6 5 -14 18 -18 29 -6 16 -3 18 25 12 18 -3 48 -18
67 -32z m1121 -113 c11 -7 10 -11 -7 -20 -11 -6 -25 -11 -31 -11 -15 0 -14 27
2 33 18 8 21 8 36 -2z m-2707 -173 c-6 -6 -15 -8 -19 -4 -4 4 -1 11 7 16 19
12 27 3 12 -12z m3013 -37 c3 -5 1 -12 -5 -16 -5 -3 -10 1 -10 9 0 18 6 21 15
7z m-522 -26 c-7 -21 -13 -19 -13 6 0 11 4 18 10 14 5 -3 7 -12 3 -20z m301
-4 c3 -5 -1 -14 -9 -21 -13 -10 -15 -9 -15 9 0 21 14 28 24 12z m-2436 -69
c34 -32 62 -62 62 -67 0 -6 10 -15 23 -20 16 -8 22 -18 20 -40 -1 -16 -3 -100
-6 -185 -2 -85 -7 -163 -11 -172 -6 -12 -4 -18 5 -18 11 0 14 -22 15 -94 1
-87 26 -196 44 -196 3 0 6 -17 6 -37 1 -48 28 -118 46 -118 7 0 13 -11 14 -25
0 -14 14 -50 31 -80 23 -42 37 -56 57 -60 27 -5 26 -6 -31 -46 -52 -37 -112
-68 -167 -88 -15 -5 -17 -13 -12 -38 12 -63 -61 -101 -115 -59 -13 10 -55 35
-94 56 -38 21 -86 49 -105 62 -19 12 -39 23 -45 23 -5 0 -21 6 -35 13 -42 22
-173 49 -220 45 l-45 -3 2 -38 c2 -34 0 -38 -15 -32 -9 4 -26 10 -38 12 -18 4
-22 16 -31 101 -11 98 -9 118 7 92 5 -9 6 2 3 28 -3 24 -2 42 4 42 5 0 10 7
10 15 0 13 18 79 29 110 2 6 22 37 43 70 22 33 47 75 57 94 18 35 117 120 172
146 17 9 32 23 32 31 0 8 13 20 28 27 36 15 148 107 156 127 3 8 19 40 36 70
25 47 30 66 30 128 0 67 -2 75 -30 104 -34 35 -41 78 -12 78 9 0 45 -26 80
-58z m492 -36 c0 -3 -4 -8 -10 -11 -5 -3 -10 -1 -10 4 0 6 5 11 10 11 6 0 10
-2 10 -4z m1401 -32 c17 -8 38 -23 48 -32 75 -69 89 -86 95 -113 9 -48 7 -99
-4 -99 -6 0 -15 -12 -20 -26 -16 -40 -39 -25 -66 41 -37 91 -65 146 -96 189
-15 21 -28 43 -28 48 0 13 38 9 71 -8z m-1434 -16 c-3 -8 -6 -5 -6 6 -1 11 2
17 5 13 3 -3 4 -12 1 -19z m413 1 c0 -6 -4 -7 -10 -4 -5 3 -10 11 -10 16 0 6
5 7 10 4 6 -3 10 -11 10 -16z m-320 7 c0 -2 -7 -6 -15 -10 -8 -3 -15 -1 -15 4
0 6 7 10 15 10 8 0 15 -2 15 -4z m2030 -11 c0 -8 -4 -15 -10 -15 -5 0 -10 7
-10 15 0 8 5 15 10 15 6 0 10 -7 10 -15z m-1780 -50 c79 -41 108 -138 92 -310
-8 -97 -7 -116 10 -165 24 -70 50 -108 132 -195 36 -38 66 -74 66 -78 0 -13
-19 -15 -167 -22 l-142 -6 -38 34 c-85 74 -119 82 -181 44 -109 -69 -212 -59
-308 31 -75 69 -104 132 -104 223 0 31 6 67 13 80 66 123 167 161 277 103 27
-14 54 -23 60 -19 5 3 10 39 10 78 0 53 5 80 19 103 54 88 185 138 261 99z
m1574 -56 c14 -17 26 -41 26 -54 0 -13 5 -27 10 -30 6 -3 10 -22 10 -41 0 -32
8 -46 68 -112 32 -37 30 -104 -6 -158 -22 -34 -100 -126 -159 -189 -7 -7 -20
-26 -30 -43 -26 -43 -115 -190 -132 -216 -17 -26 -8 -76 14 -76 8 0 26 20 40
44 31 54 79 105 159 172 123 102 153 138 217 259 20 38 41 71 47 73 5 1 12 -9
16 -23 4 -16 13 -25 26 -25 11 0 24 -8 29 -19 6 -10 26 -22 45 -25 25 -5 33
-11 30 -21 -4 -9 4 -19 20 -26 15 -7 29 -23 32 -36 4 -13 12 -23 19 -23 7 0
16 -12 20 -27 6 -25 0 -35 -57 -88 -116 -108 -258 -304 -258 -355 0 -43 21
-38 57 14 17 24 70 72 118 107 49 35 117 88 151 117 78 64 94 66 94 13 0 -22
5 -43 10 -46 6 -3 10 -23 10 -44 0 -20 5 -42 11 -48 6 -6 10 -55 10 -122 -1
-129 9 -140 61 -66 18 25 38 45 45 45 9 0 13 15 13 46 0 25 4 43 9 39 10 -5
15 6 26 63 7 32 25 45 25 18 0 -8 6 -16 13 -18 27 -10 14 -345 -17 -403 -9
-16 -16 -39 -16 -51 0 -23 -46 -143 -61 -158 -5 -6 -9 -20 -9 -33 0 -13 -5
-23 -11 -23 -7 0 -17 -7 -23 -15 -10 -14 -19 -12 -75 16 l-65 32 -49 -17 c-38
-14 -52 -15 -63 -5 -8 6 -14 16 -14 21 0 6 -29 51 -64 102 -75 106 -212 255
-303 327 -89 71 -240 170 -293 193 -25 11 -52 26 -60 33 -12 11 -11 15 8 29
13 9 21 21 19 27 -2 7 3 19 12 27 9 8 32 51 50 95 l34 80 3 215 c2 212 3 216
34 305 17 50 36 105 42 123 15 42 47 43 82 1z m581 11 c3 -5 1 -10 -4 -10 -6
0 -11 5 -11 10 0 6 2 10 4 10 3 0 8 -4 11 -10z m-1068 -92 c-3 -8 -6 -5 -6 6
-1 11 2 17 5 13 3 -3 4 -12 1 -19z m1183 -28 c0 -11 -4 -20 -10 -20 -5 0 -10
9 -10 20 0 11 5 20 10 20 6 0 10 -9 10 -20z m-276 -46 c4 -11 1 -14 -11 -12
-9 2 -18 9 -21 16 -6 18 25 15 32 -4z m-100 -38 c-3 -14 -10 -26 -15 -26 -10
0 -12 31 -3 55 10 26 26 1 18 -29z m-2534 -10 c0 -3 -4 -8 -10 -11 -5 -3 -10
-1 -10 4 0 6 5 11 10 11 6 0 10 -2 10 -4z m-1300 -62 c0 -8 -5 -12 -10 -9 -6
4 -8 11 -5 16 9 14 15 11 15 -7z m70 0 c0 -8 -4 -12 -10 -9 -5 3 -10 10 -10
16 0 5 5 9 10 9 6 0 10 -7 10 -16z m4200 -29 c0 -8 -4 -17 -10 -20 -6 -4 -10
5 -10 20 0 15 4 24 10 20 6 -3 10 -12 10 -20z m-4130 -20 c-7 -8 -26 -15 -43
-15 -37 0 -30 10 15 20 18 4 35 8 37 9 2 1 -2 -6 -9 -14z m-180 -25 c0 -5 -7
-10 -15 -10 -8 0 -15 5 -15 10 0 6 7 10 15 10 8 0 15 -4 15 -10z m60 -27 c-1
-13 -72 -54 -84 -50 -6 3 0 9 14 15 14 5 32 17 39 26 14 17 31 22 31 9z m330
-19 c0 -8 -4 -12 -10 -9 -5 3 -10 10 -10 16 0 5 5 9 10 9 6 0 10 -7 10 -16z
m-73 -39 c37 -43 49 -98 39 -183 -9 -81 -29 -162 -40 -162 -15 0 4 -63 26 -84
16 -15 18 -21 8 -24 -8 -3 -16 0 -18 7 -2 7 -13 21 -25 31 -15 15 -24 17 -34
9 -20 -17 -17 -26 33 -79 48 -51 70 -61 80 -35 9 22 27 18 54 -11 l24 -25 -34
-27 c-57 -43 -130 -123 -136 -148 -9 -37 -30 -29 -68 29 -43 64 -103 127 -120
127 -7 0 -23 -11 -35 -24 -32 -34 -112 -52 -152 -36 -21 9 -27 16 -20 23 17
17 13 42 -10 63 -12 10 -33 39 -48 64 -21 37 -26 57 -26 114 0 76 -17 98 -36
49 -20 -50 2 -162 44 -224 20 -30 34 -56 31 -58 -10 -10 -68 57 -90 104 -26
54 -33 160 -14 209 25 66 153 103 200 56 28 -28 40 -18 40 33 0 55 33 143 66
178 48 51 101 71 169 65 54 -4 63 -8 92 -41z m3810 -2 c-3 -10 -5 -4 -5 12 0
17 2 24 5 18 2 -7 2 -21 0 -30z m-817 -24 c0 -11 -4 -18 -10 -14 -5 3 -7 12
-3 20 7 21 13 19 13 -6z m-3359 -22 c-1 -4 -1 -14 -1 -22 0 -8 -4 -15 -10 -15
-5 0 -10 12 -10 26 0 14 5 24 11 22 6 -2 10 -7 10 -11z m4176 -9 c-3 -8 -6 -5
-6 6 -1 11 2 17 5 13 3 -3 4 -12 1 -19z m-1017 2 c0 -5 -4 -10 -10 -10 -5 0
-10 5 -10 10 0 6 5 10 10 10 6 0 10 -4 10 -10z m160 -34 c0 -3 -4 -8 -10 -11
-5 -3 -10 -1 -10 4 0 6 5 11 10 11 6 0 10 -2 10 -4z m830 -8 c0 -7 -5 -20 -10
-28 -8 -12 -10 -9 -10 13 0 15 5 27 10 27 6 0 10 -6 10 -12z m-4285 -48 c-3
-5 -14 -10 -23 -10 -15 0 -15 2 -2 10 20 13 33 13 25 0z m4432 -42 c-3 -8 -6
-5 -6 6 -1 11 2 17 5 13 3 -3 4 -12 1 -19z m-3817 -66 c0 -9 -5 -24 -10 -32
-7 -11 -10 -5 -10 23 0 23 4 36 10 32 6 -3 10 -14 10 -23z m978 -2 c12 -11 33
-25 47 -30 14 -5 25 -14 25 -20 0 -16 -30 -12 -36 5 -4 8 -15 15 -25 15 -10 0
-19 5 -19 10 0 6 -6 10 -14 10 -8 0 -16 7 -20 15 -8 22 16 19 42 -5z m3686 5
c16 -12 17 -15 4 -15 -8 0 -21 7 -28 15 -16 19 -1 19 24 0z m-898 -31 c-3 -9
-6 -18 -6 -20 0 -2 -4 -4 -9 -4 -5 0 -7 9 -4 20 3 11 10 20 15 20 6 0 7 -7 4
-16z m-3776 -122 c0 -11 -6 -8 -20 8 -11 13 -20 28 -20 33 0 6 9 2 20 -8 11
-10 20 -25 20 -33z m2775 -22 c3 -5 -3 -10 -15 -10 -12 0 -18 5 -15 10 3 6 10
10 15 10 5 0 12 -4 15 -10z m-2695 -46 c0 -8 -4 -12 -10 -9 -5 3 -10 10 -10
16 0 5 5 9 10 9 6 0 10 -7 10 -16z m-808 -46 c-9 -9 -12 -7 -12 12 0 19 3 21
12 12 9 -9 9 -15 0 -24z m2428 2 c0 -5 -9 -10 -20 -10 -11 0 -20 5 -20 10 0 6
9 10 20 10 11 0 20 -4 20 -10z m530 0 c0 -5 -7 -7 -15 -4 -8 4 -15 8 -15 10 0
2 7 4 15 4 8 0 15 -4 15 -10z m-2933 -72 c-3 -7 -5 -2 -5 12 0 14 2 19 5 13 2
-7 2 -19 0 -25z m5673 -8 c0 -11 -7 -20 -15 -20 -8 0 -15 9 -15 20 0 11 7 20
15 20 8 0 15 -9 15 -20z m-4929 -57 c-59 -55 -120 -142 -132 -188 -15 -61 -18
-67 -29 -60 -13 8 -13 35 0 35 6 0 10 10 10 23 0 12 9 36 19 53 10 17 21 38
22 47 8 32 103 127 127 127 22 0 21 -3 -17 -37z m316 31 c-3 -3 -12 -4 -19 -1
-8 3 -5 6 6 6 11 1 17 -2 13 -5z m-987 -20 c0 -2 -9 -4 -21 -4 -11 0 -18 4
-14 10 5 8 35 3 35 -6z m1057 0 c-3 -3 -12 -4 -19 -1 -8 3 -5 6 6 6 11 1 17
-2 13 -5z m-750 -46 c-3 -8 -6 -5 -6 6 -1 11 2 17 5 13 3 -3 4 -12 1 -19z
m463 -33 c0 -8 -7 -15 -15 -15 -9 0 -12 6 -9 15 4 8 10 15 15 15 5 0 9 -7 9
-15z m-395 -16 c11 -17 -1 -21 -15 -4 -8 9 -8 15 -2 15 6 0 14 -5 17 -11z
m-1024 -52 c-13 -13 -15 1 -4 30 7 17 8 17 11 -1 2 -10 -1 -23 -7 -29z m5446
1 c-3 -7 -5 -2 -5 12 0 14 2 19 5 13 2 -7 2 -19 0 -25z m-4080 -23 c-9 -18
-13 -20 -15 -9 -5 21 6 46 17 40 5 -4 4 -16 -2 -31z m-284 -37 c8 -5 6 -8 -4
-8 -21 0 -30 21 -21 52 6 22 7 21 10 -7 2 -16 9 -33 15 -37z m247 -50 c0 -7
-5 -20 -10 -28 -8 -12 -10 -9 -10 13 0 15 5 27 10 27 6 0 10 -6 10 -12z m2747
-150 c-3 -8 -6 -5 -6 6 -1 11 2 17 5 13 3 -3 4 -12 1 -19z m-4432 -48 c3 -5 1
-10 -4 -10 -6 0 -11 5 -11 10 0 6 2 10 4 10 3 0 8 -4 11 -10z m72 -32 c-3 -8
-6 -5 -6 6 -1 11 2 17 5 13 3 -3 4 -12 1 -19z m3054 -8 c13 -11 17 -18 9 -16
-8 2 -28 7 -43 10 -15 4 -25 11 -22 16 10 16 31 12 56 -10z m-460 -19 c13 -11
21 -22 18 -25 -8 -8 -69 23 -69 35 0 15 26 10 51 -10z m674 -31 c15 -29 15
-30 -9 -30 -14 0 -28 5 -31 10 -3 6 -19 10 -36 10 -39 0 -37 17 4 29 50 14 55
13 72 -19z m-581 -15 c19 -14 18 -15 -17 -15 -26 0 -37 4 -37 15 0 19 29 19
54 0z m-1204 -10 c0 -8 -4 -15 -10 -15 -5 0 -10 7 -10 15 0 8 5 15 10 15 6 0
10 -7 10 -15z m3966 -42 c-11 -11 -19 6 -11 24 8 17 8 17 12 0 3 -10 2 -21 -1
-24z m-2686 17 c0 -5 -9 -10 -19 -10 -11 0 -23 5 -26 10 -4 6 5 10 19 10 14 0
26 -4 26 -10z m605 -20 c10 -11 13 -20 7 -20 -6 0 -14 5 -17 10 -3 6 -15 10
-26 10 -10 0 -19 5 -19 10 0 17 36 11 55 -10z m-532 -1 c-8 -8 -16 -8 -30 0
-16 9 -14 10 12 11 21 0 26 -3 18 -11z m627 -33 c0 -8 8 -17 18 -20 18 -6 47
-45 38 -53 -3 -3 -22 11 -42 31 -20 20 -43 36 -51 36 -8 0 -11 5 -8 10 9 15
45 12 45 -4z m110 -120 c0 -8 -4 -18 -10 -21 -5 -3 -10 3 -10 14 0 12 5 21 10
21 6 0 10 -6 10 -14z m25 -13 c2 -10 4 -21 4 -25 1 -4 9 -9 20 -13 11 -3 19
-15 19 -30 0 -26 -12 -19 -36 24 -15 25 -28 80 -17 69 4 -3 8 -14 10 -25z
m-1615 -93 c13 -8 13 -10 -2 -10 -9 0 -20 5 -23 10 -8 13 5 13 25 0z m77 -66
c-9 -9 -28 6 -21 18 4 6 10 6 17 -1 6 -6 8 -13 4 -17z m1618 -35 c6 -30 18
-69 28 -88 11 -23 14 -38 7 -45 -13 -13 -22 -3 -25 31 -3 30 -18 76 -35 105
-14 25 -13 61 3 56 6 -3 17 -29 22 -59z m-1548 -11 c32 -31 43 -58 24 -58 -9
0 -81 76 -81 85 0 14 28 1 57 -27z m-347 -80 c0 -5 -4 -8 -10 -8 -5 0 -10 10
-10 23 0 18 2 19 10 7 5 -8 10 -18 10 -22z m-1749 -8 c5 0 9 -7 9 -15 0 -15
-20 -22 -20 -7 0 4 -2 16 -4 27 -2 11 -1 14 1 8 3 -7 9 -13 14 -13z m2188 -22
c17 -18 31 -38 31 -45 0 -7 6 -16 13 -20 27 -18 45 -50 51 -93 5 -41 5 -43 -5
-15 -7 17 -31 54 -55 84 -24 29 -44 59 -44 67 0 7 -10 22 -22 34 -12 11 -17
20 -10 20 6 0 25 -15 41 -32z m59 11 c-2 -6 -8 -10 -13 -10 -5 0 -11 4 -13 10
-2 6 4 11 13 11 9 0 15 -5 13 -11z m1458 -130 c-3 -17 -6 -46 -6 -63 0 -24 -3
-27 -10 -16 -11 17 -13 70 -4 94 11 29 27 17 20 -15z m-16 -113 c0 -8 -4 -17
-9 -21 -12 -7 -24 12 -16 25 9 15 25 12 25 -4z m90 -17 c0 -5 -4 -9 -10 -9 -5
0 -10 7 -10 16 0 8 5 12 10 9 6 -3 10 -10 10 -16z m-1458 -21 c-9 -9 -12 -7
-12 12 0 19 3 21 12 12 9 -9 9 -15 0 -24z m69 -20 c6 -12 6 -18 -1 -18 -5 0
-10 7 -10 15 0 8 -4 15 -10 15 -5 0 -10 8 -10 18 0 18 6 12 31 -30z m1334 22
c3 -5 -1 -10 -10 -10 -9 0 -13 5 -10 10 3 6 8 10 10 10 2 0 7 -4 10 -10z m-39
-112 l-16 -22 0 21 c0 12 6 35 13 50 l12 28 3 -28 c2 -15 -4 -37 -12 -49z
m-1312 -59 c-7 -39 -8 -41 -15 -19 -4 14 -7 41 -8 60 -1 31 0 33 15 18 13 -12
14 -25 8 -59z m56 41 c0 -18 -5 -30 -13 -30 -9 0 -12 10 -9 30 2 17 8 30 13
30 5 0 9 -13 9 -30z m1300 -7 c0 -19 -3 -24 -10 -17 -6 6 -8 18 -4 27 9 24 14
21 14 -10z m-1973 -60 c-3 -10 -5 -4 -5 12 0 17 2 24 5 18 2 -7 2 -21 0 -30z
m1893 -41 c0 -9 -5 -24 -10 -32 -7 -11 -10 -5 -10 23 0 23 4 36 10 32 6 -3 10
-14 10 -23z m-1280 -101 c0 -14 -7 -35 -15 -45 -8 -11 -15 -28 -15 -38 0 -10
-4 -18 -10 -18 -5 0 -10 11 -10 24 0 14 5 28 10 31 6 3 10 24 10 45 0 31 3 38
15 34 8 -4 15 -18 15 -33z m1240 -11 c0 -5 -2 -10 -4 -10 -3 0 -8 5 -11 10 -3
6 -1 10 4 10 6 0 11 -4 11 -10z m-43 -62 c-3 -8 -6 -5 -6 6 -1 11 2 17 5 13 3
-3 4 -12 1 -19z m-17 -48 c0 -5 -7 -10 -15 -10 -8 0 -15 5 -15 10 0 6 7 10 15
10 8 0 15 -4 15 -10z m-1215 -40 c-28 -12 -47 -12 -40 0 3 6 18 10 33 9 24 0
25 -1 7 -9z m105 -22 c0 -9 -13 -10 -34 -2 -8 3 -12 12 -9 19 4 11 9 12 24 2
10 -6 19 -15 19 -19z m225 12 c4 -6 -9 -10 -32 -9 -30 0 -34 2 -18 9 27 12 43
12 50 0z m820 -42 c-10 -31 -20 -40 -40 -36 -15 3 -15 6 5 31 26 33 44 35 35
5z m-895 -3 c10 -12 10 -15 -1 -15 -33 0 -88 13 -84 20 8 13 73 9 85 -5z
m-686 -21 c10 -25 7 -34 -9 -28 -8 4 -15 15 -15 25 0 23 16 25 24 3z m386 -4
c0 -5 -2 -10 -4 -10 -3 0 -8 5 -11 10 -3 6 -1 10 4 10 6 0 11 -4 11 -10z
m1240 -16 c0 -2 -7 -4 -15 -4 -8 0 -15 4 -15 10 0 5 7 7 15 4 8 -4 15 -8 15
-10z m-114 -31 c20 -27 17 -35 -6 -16 -20 17 -26 33 -14 33 4 0 13 -8 20 -17z
m-1441 -61 c-8 -8 -25 10 -19 20 4 6 9 5 15 -3 4 -7 6 -15 4 -17z m436 8 c23
-19 23 -19 4 -20 -21 0 -45 17 -45 32 0 14 17 9 41 -12z m929 5 c0 -8 -11 -17
-25 -21 -14 -3 -34 -17 -44 -30 -20 -26 -81 -45 -81 -25 0 6 10 11 21 11 12 0
41 18 65 40 46 42 64 49 64 25z m-742 -74 c10 -6 8 -10 -10 -14 -35 -10 -45
-8 -45 8 0 16 34 20 55 6z m-204 -17 c4 -10 1 -14 -6 -12 -15 5 -23 28 -10 28
5 0 13 -7 16 -16z m96 -3 c0 -10 -25 -21 -48 -21 -12 0 -9 4 8 14 31 17 40 19
40 7z m349 -27 c8 -7 -6 -15 -32 -17 -15 -1 -26 2 -26 7 0 5 -5 13 -13 18 -8
5 2 6 27 2 22 -4 42 -8 44 -10z m188 0 c-3 -3 -12 -4 -19 -1 -8 3 -5 6 6 6 11
1 17 -2 13 -5z m-582 -40 c19 -15 18 -15 -14 -12 -19 2 -36 9 -39 16 -5 17 29
15 53 -4z m39 -63 c3 -5 -11 -11 -32 -13 -42 -6 -53 -1 -32 12 19 12 57 13 64
1z m259 -38 c-13 -2 -33 -2 -45 0 -13 2 -3 4 22 4 25 0 35 -2 23 -4z"/>
<path d="M3273 3678 c-13 -6 -23 -15 -23 -20 0 -4 -7 -8 -15 -8 -22 0 -75 -84
-75 -119 0 -47 22 -37 50 21 43 89 125 123 183 77 24 -18 32 -38 51 -121 4
-19 11 -26 21 -22 32 13 9 130 -34 177 -21 23 -32 27 -80 26 -31 0 -66 -5 -78
-11z"/>
<path d="M3330 3074 c-12 -13 -11 -17 1 -25 8 -5 16 -9 19 -9 3 0 20 -14 39
-30 18 -17 37 -28 42 -25 17 11 9 41 -18 67 -37 35 -67 43 -83 22z"/>
</g>
</svg>
